<?xml version="1.0" standalone="no"?>
<!DOCTYPE svg PUBLIC "-//W3C//DTD SVG 20010904//EN"
 "http://www.w3.org/TR/2001/REC-SVG-20010904/DTD/svg10.dtd">
<svg version="1.0" xmlns="http://www.w3.org/2000/svg"
 width="182.000000pt" height="182.000000pt" viewBox="0 0 182.000000 182.000000"
 preserveAspectRatio="xMidYMid meet">
<metadata>
Created by potrace 1.11, written by Peter Selinger 2001-2013
</metadata>
<g transform="translate(0.000000,182.000000) scale(0.100000,-0.100000)"
fill="#000000" stroke="none">
<path d="M777 1730 c-208 -44 -391 -173 -512 -359 -36 -56 -51 -71 -63 -65
-10 4 -32 9 -49 12 -46 6 -103 -50 -103 -101 0 -39 36 -91 70 -102 15 -5 20
-15 20 -40 0 -18 7 -70 16 -116 15 -82 15 -139 -2 -294 l-6 -61 60 -37 c76
-47 133 -110 202 -227 94 -157 143 -201 273 -242 88 -28 277 -35 383 -15 155
29 222 81 319 244 68 114 157 207 232 242 63 29 71 52 49 139 -20 75 -20 136
-1 235 8 43 15 98 15 122 0 38 3 44 30 55 42 17 60 47 60 98 0 69 -61 115
-127 96 -16 -4 -31 -8 -34 -8 -4 -1 -30 33 -58 75 -62 94 -177 204 -267 257
-79 47 -189 86 -284 101 -87 14 -119 13 -223 -9z m623 -532 c58 -30 111 -80
99 -92 -3 -3 -41 7 -84 21 -100 33 -252 36 -355 8 -85 -24 -215 -24 -300 0
-102 28 -254 25 -355 -8 -43 -14 -81 -24 -83 -22 -9 9 30 56 66 78 70 44 80
45 523 46 l426 1 63 -32z m-647 -112 c53 -22 70 -55 65 -121 -10 -121 -91
-179 -241 -172 -69 3 -81 7 -107 32 -35 34 -55 108 -46 178 7 62 30 88 88 98
62 11 200 3 241 -15z m607 4 c29 -16 43 -65 38 -138 -9 -130 -54 -168 -188
-160 -42 3 -91 13 -111 23 -72 35 -116 145 -86 217 17 41 38 55 100 68 49 11
222 4 247 -10z m-994 -109 c27 -123 57 -176 115 -206 33 -18 152 -20 219 -4
67 15 105 50 145 134 38 79 61 109 76 100 4 -3 29 -46 55 -96 62 -120 94 -140
233 -147 80 -4 105 -1 135 13 46 22 88 92 106 176 7 32 16 59 21 59 4 0 15 3
24 6 15 6 17 -2 14 -82 -6 -140 -59 -214 -154 -214 -66 0 -78 -15 -86 -109 -9
-104 -43 -176 -118 -251 -84 -84 -135 -105 -251 -105 -85 0 -101 3 -153 30
-72 36 -140 109 -165 178 -11 29 -22 88 -26 132 -7 96 -22 114 -97 126 -55 9
-98 40 -124 90 -11 20 -21 151 -16 201 2 18 42 -8 47 -31z"/>
</g>
</svg>
